<?xml version="1.0" encoding="iso-8859-1"?>
<!-- Generator: Adobe Illustrator 16.0.0, SVG Export Plug-In . SVG Version: 6.00 Build 0)  -->
<!DOCTYPE svg PUBLIC "-//W3C//DTD SVG 1.1//EN" "http://www.w3.org/Graphics/SVG/1.1/DTD/svg11.dtd">
<svg version="1.1" id="Capa_1" xmlns="http://www.w3.org/2000/svg" xmlns:xlink="http://www.w3.org/1999/xlink" x="0px" y="0px"
	 width="43px" height="43px" viewBox="0 0 43 43" style="enable-background:new 0 0 43 43;" xml:space="preserve">
<g>
	<g>
		<polygon points="17.806,17.307 19.796,17.307 18.801,14.936 		"/>
		<path d="M34.667,0H8.333c-2.485,0-4.5,2.016-4.5,4.5v34c0,2.486,2.015,4.5,4.5,4.5h26.334c2.484,0,4.5-2.014,4.5-4.5v-34
			C39.167,2.016,37.151,0,34.667,0z M25.89,27.012c-1.268,0-2.27-0.697-2.824-1.963l-0.955-2.236h-6.617l-1.004,2.355
			c-0.501,1.156-1.529,1.844-2.75,1.844c-1.587,0-2.83-1.254-2.83-2.854c0-0.492,0.172-0.936,0.321-1.266l6.285-14.189
			c0.617-1.38,1.795-2.168,3.234-2.168h0.232c1.422,0,2.591,0.788,3.208,2.163L28.478,22.9c0.197,0.438,0.293,0.822,0.293,1.205
			C28.771,25.709,27.478,27.012,25.89,27.012z M32.59,11.25h-1.75V13c0,0.829-0.671,1.5-1.5,1.5s-1.5-0.671-1.5-1.5v-1.75h-1.75
			c-0.829,0-1.5-0.671-1.5-1.5c0-0.828,0.671-1.5,1.5-1.5h1.75V6.5c0-0.828,0.671-1.5,1.5-1.5s1.5,0.672,1.5,1.5v1.75h1.75
			c0.829,0,1.5,0.672,1.5,1.5C34.09,10.579,33.418,11.25,32.59,11.25z"/>
	</g>
</g>
<g>
</g>
<g>
</g>
<g>
</g>
<g>
</g>
<g>
</g>
<g>
</g>
<g>
</g>
<g>
</g>
<g>
</g>
<g>
</g>
<g>
</g>
<g>
</g>
<g>
</g>
<g>
</g>
<g>
</g>
</svg>
