<?xml version="1.0" encoding="iso-8859-1"?>
<!-- Generator: Adobe Illustrator 19.0.0, SVG Export Plug-In . SVG Version: 6.00 Build 0)  -->
<svg xmlns="http://www.w3.org/2000/svg" xmlns:xlink="http://www.w3.org/1999/xlink" version="1.1" id="Capa_1" x="0px" y="0px" viewBox="0 0 512 512" style="enable-background:new 0 0 512 512;" xml:space="preserve" width="512px" height="512px">
<g>
	<g>
		<path d="M187.398,335.823h-87.007c-5.534,0-10.031,4.47-10.031,9.978c0,5.508,4.497,9.978,10.031,9.978h87.007    c5.547,0,10.044-4.47,10.044-9.978C197.442,340.293,192.947,335.823,187.398,335.823z" fill="#FFFFFF"/>
	</g>
</g>
<g>
	<g>
		<path d="M509.052,375.329l-79.038-78.559c18.279-21.891,29.295-50.009,29.295-80.688c0-39.506-18.266-74.747-46.824-97.93V36.486    c0-14.634-12.047-26.608-26.774-26.608H26.774C12.047,9.878,0,21.852,0,36.486v439.029c0,14.634,12.047,26.608,26.774,26.608    H385.72c14.734,0,26.774-11.973,26.774-26.608l-0.007-161.495c1.198-0.965,2.288-2.015,3.446-3.02l78.925,78.447    c3.924,3.898,10.277,3.898,14.202,0C512.985,385.548,512.978,379.227,509.052,375.329z M307.859,269.304h-68.316    c-8.096-13.863-13.098-29.674-14.148-46.564h82.457c5.547,0,10.044-4.47,10.044-9.978c0-5.508-4.497-9.978-10.044-9.978h-81.865    c2.155-17.096,8.342-32.967,17.68-46.564h64.191c5.547,0,10.044-4.47,10.044-9.978s-4.497-9.978-10.044-9.978h-46.318    c18.878-16.503,43.55-26.608,70.597-26.608c22.33,0,43.085,6.851,60.26,18.52l0.013,175.817    c-17.188,11.674-37.935,18.526-60.267,18.526c-30.519,0-58.039-12.825-77.561-33.26h53.282c5.547,0,10.044-4.47,10.044-9.978    C317.91,273.774,313.406,269.304,307.859,269.304z M385.719,482.166H26.774c-3.625,0-6.692-3.047-6.692-6.652V36.486    c0-3.605,3.067-6.652,6.692-6.652h358.932c3.625,0,6.692,3.047,6.692,6.652v68.303c-17.927-9.618-38.441-15.087-60.254-15.087    c-39.771,0-75.253,18.153-98.555,46.564h-133.2c-5.534,0-10.031,4.47-10.031,9.978s4.497,9.978,10.031,9.978h119.748    c-7.65,14.122-12.691,29.854-14.448,46.564h-105.3c-5.534,0-10.031,4.47-10.031,9.978s4.497,9.978,10.031,9.978h104.921    c0.871,16.577,4.909,32.289,11.601,46.564H100.391c-5.534,0-10.031,4.47-10.031,9.978c0,5.508,4.497,9.978,10.031,9.978H228.58    c23.048,32.168,60.793,53.216,103.557,53.216c21.811,0,42.326-5.468,60.273-15.093v148.129h0.001    C392.411,479.119,389.344,482.166,385.719,482.166z M412.481,286.213V145.957c16.596,18.745,26.741,43.251,26.741,70.125    C439.221,242.955,429.077,267.462,412.481,286.213z" fill="#FFFFFF"/>
	</g>
</g>
<g>
</g>
<g>
</g>
<g>
</g>
<g>
</g>
<g>
</g>
<g>
</g>
<g>
</g>
<g>
</g>
<g>
</g>
<g>
</g>
<g>
</g>
<g>
</g>
<g>
</g>
<g>
</g>
<g>
</g>
</svg>
