<?xml version="1.0" encoding="iso-8859-1"?>
<!-- Generator: Adobe Illustrator 19.1.0, SVG Export Plug-In . SVG Version: 6.00 Build 0)  -->
<svg version="1.1" id="Capa_1" xmlns="http://www.w3.org/2000/svg" xmlns:xlink="http://www.w3.org/1999/xlink" x="0px" y="0px"
	 viewBox="0 0 353.708 353.708" style="enable-background:new 0 0 353.708 353.708;" xml:space="preserve">
<g>
	<g>
		<path style="fill:#231F20;" d="M343.297,313.344H10.411C4.676,313.344,0,318.02,0,323.755c0,5.717,4.676,10.411,10.411,10.411
			h332.886c5.735,0,10.411-4.676,10.411-10.411C353.709,318.02,349.032,313.344,343.297,313.344z"/>
		<path style="fill:#231F20;" d="M65.554,287.246c-0.6,1.306-0.953,2.735-0.953,4.253c0,5.735,4.676,10.411,10.411,10.411h203.685
			c5.735,0,10.411-4.694,10.411-10.411c0-1.518-0.37-2.947-0.97-4.253c-6.794-43.003-37.85-77.712-78.7-90.134
			c28.251-14.452,48.049-46.938,48.049-84.753c0-51.172-36.174-92.817-80.641-92.817c-44.485,0-80.659,41.644-80.659,92.817
			c0,37.815,19.816,70.283,48.067,84.735C103.404,209.534,72.348,244.225,65.554,287.246z M113.85,112.341
			c0-41.45,28.268-75.171,63.013-75.171s62.995,33.721,62.995,75.171s-28.251,75.171-62.995,75.171S113.85,153.791,113.85,112.341z
			 M176.863,209.481c44.308,0,81.205,30.562,91.829,71.607H85.018C95.64,240.043,132.537,209.481,176.863,209.481z"/>
	</g>
</g>
<g>
</g>
<g>
</g>
<g>
</g>
<g>
</g>
<g>
</g>
<g>
</g>
<g>
</g>
<g>
</g>
<g>
</g>
<g>
</g>
<g>
</g>
<g>
</g>
<g>
</g>
<g>
</g>
<g>
</g>
</svg>
